<svg width="406" height="549" viewBox="0 0 406 549" fill="none" xmlns="http://www.w3.org/2000/svg">
<path d="M202.964 6C311.694 6.00016 399.928 86.7367 399.928 212.945C399.928 241.768 389.364 275.13 372.646 309.718C355.975 344.21 333.433 379.417 310.036 411.796C265.074 474.019 217.298 525.324 202.963 540.351C188.627 525.323 140.852 474.018 95.8906 411.796C72.4941 379.417 49.9527 344.21 33.2812 309.718C16.5636 275.13 6 241.768 6 212.945C6.00007 86.7366 94.2333 6 202.964 6Z" fill="#FBF0EC" stroke="url(#paint0_linear_293_7350)" stroke-width="12"/>
<path d="M101.743 119.33C127.441 92.0738 169.106 92.0744 194.804 119.33L195.116 119.661C199.674 124.497 207.363 124.498 211.923 119.663C237.795 92.2224 279.742 92.2224 305.614 119.663C331.485 147.104 332.017 192.126 309.187 222.451C295.778 240.261 276.142 262.48 206.263 324.803C205.011 325.92 203.065 325.866 201.913 324.645C131.15 261.433 111.737 239.328 98.2564 221.388C75.6047 191.245 76.0457 146.588 101.743 119.33Z" fill="url(#paint1_linear_293_7350)"/>
<defs>
<linearGradient id="paint0_linear_293_7350" x1="202.964" y1="0" x2="202.964" y2="549" gradientUnits="userSpaceOnUse">
<stop stop-color="#FE9C9C"/>
<stop offset="1" stop-color="#F68A82"/>
</linearGradient>
<linearGradient id="paint1_linear_293_7350" x1="203.767" y1="98.8882" x2="203.767" y2="326.836" gradientUnits="userSpaceOnUse">
<stop stop-color="#FD9997"/>
<stop offset="1" stop-color="#FB8280"/>
</linearGradient>
</defs>
</svg>
