<svg width="406" height="549" viewBox="0 0 406 549" fill="none" xmlns="http://www.w3.org/2000/svg">
<path d="M405.927 212.945C405.927 333.513 229.924 520.946 205.712 546.16C204.163 547.774 201.764 547.774 200.215 546.16C176.003 520.946 0 333.513 0 212.945C0 83.4726 90.8698 0 202.964 0C315.057 0 405.927 83.4726 405.927 212.945Z" fill="#FBF0EC"/>
<path d="M101.743 119.33C127.441 92.0738 169.106 92.0744 194.804 119.33L195.116 119.661C199.674 124.497 207.363 124.498 211.923 119.663C237.795 92.2224 279.742 92.2224 305.614 119.663C331.485 147.104 332.017 192.126 309.187 222.451C295.778 240.261 276.142 262.48 206.263 324.803C205.011 325.92 203.065 325.866 201.913 324.645C131.15 261.433 111.737 239.328 98.2564 221.388C75.6047 191.245 76.0457 146.588 101.743 119.33Z" fill="url(#paint0_linear_234_4197)"/>
<defs>
<linearGradient id="paint0_linear_234_4197" x1="203.767" y1="98.8882" x2="203.767" y2="326.836" gradientUnits="userSpaceOnUse">
<stop stop-color="#FD9997"/>
<stop offset="1" stop-color="#FB8280"/>
</linearGradient>
</defs>
</svg>
